HIERARCHY
ROOT hip
{
  OFFSET 0.00112043 5.09927 -9.65472
  CHANNELS 6 Xposition Yposition Zposition Zrotation Xrotation Yrotation
  JOINT abdomen
  {
    OFFSET 0 -1.186 -1.5018
    CHANNELS 3 Zrotation Xrotation Yrotation
    JOINT abdomen2
    {
      OFFSET 0 9.964 0.2134
      CHANNELS 3 Zrotation Xrotation Yrotation
      JOINT chest
      {
        OFFSET 0 13.134 -3.2573
        CHANNELS 3 Zrotation Xrotation Yrotation
        JOINT neck
        {
          OFFSET 0 20.686 -1.6905
          CHANNELS 3 Zrotation Xrotation Yrotation
          JOINT head
          {
            OFFSET 0 7.238 -0.1237
            CHANNELS 3 Zrotation Xrotation Yrotation
            End Site
            {
              OFFSET 0 0 0
            }
          }
        }
        JOINT lCollar
        {
          OFFSET 1.7069 20.075 5.0056
          CHANNELS 3 Zrotation Xrotation Yrotation
          JOINT lShldr
          {
            OFFSET 13.6458 -0.047 -4.849
            CHANNELS 3 Zrotation Xrotation Yrotation
            JOINT lForeArm
            {
              OFFSET 28.3255 -0.9759 2.2888
              CHANNELS 3 Zrotation Xrotation Yrotation
              JOINT lHand
              {
                OFFSET 22.1583 -0.53 10.8316
                CHANNELS 3 Zrotation Xrotation Yrotation
                JOINT lThumb1
                {
                  OFFSET 0.786 0.112 2.5817
                  CHANNELS 3 Zrotation Xrotation Yrotation
                  JOINT lThumb2
                  {
                    OFFSET 0.3601 -0.878 4.2331
                    CHANNELS 3 Zrotation Xrotation Yrotation
                    JOINT lThumb2_End
                    {
                      OFFSET 1.8127 -1.216 2.2227
                      CHANNELS 3 Zrotation Xrotation Yrotation
                      End Site
                      {
                        OFFSET 0.0181 -0.0122 0.0222
                      }
                    }
                  }
                }
                JOINT lCarpal1
                {
                  OFFSET 0.9571 1.114 1.7695
                  CHANNELS 3 Zrotation Xrotation Yrotation
                  JOINT lIndex1
                  {
                    OFFSET 4.1246 0.487 4.1451
                    CHANNELS 3 Zrotation Xrotation Yrotation
                    JOINT lIndex2
                    {
                      OFFSET 3.4052 -1.454 2.7682
                      CHANNELS 3 Zrotation Xrotation Yrotation
                      JOINT lIndex2_End
                      {
                        OFFSET 1.4531 -1.795 1.2713
                        CHANNELS 3 Zrotation Xrotation Yrotation
                        End Site
                        {
                          OFFSET 0.0145 -0.0179 0.0127
                        }
                      }
                    }
                  }
                  JOINT lMid1
                  {
                    OFFSET 5.6954 0.21 2.1184
                    CHANNELS 3 Zrotation Xrotation Yrotation
                    JOINT lMid2
                    {
                      OFFSET 3.9766 -1.54 2.3863
                      CHANNELS 3 Zrotation Xrotation Yrotation
                      JOINT lMid2_End
                      {
                        OFFSET 1.4042 -1.926 1.125
                        CHANNELS 3 Zrotation Xrotation Yrotation
                        End Site
                        {
                          OFFSET 0.014 -0.0193 0.0113
                        }
                      }
                    }
                  }
                }
                JOINT lCarpal2
                {
                  OFFSET 2.0956 0.66 -0.3894
                  CHANNELS 3 Zrotation Xrotation Yrotation
                  JOINT lRing1
                  {
                    OFFSET 5.0395 -0.09 2.4971
                    CHANNELS 3 Zrotation Xrotation Yrotation
                    JOINT lRing2
                    {
                      OFFSET 3.7921 -1.552 1.4806
                      CHANNELS 3 Zrotation Xrotation Yrotation
                      JOINT lRing2_End
                      {
                        OFFSET 1.4655 -1.808 0.9609
                        CHANNELS 3 Zrotation Xrotation Yrotation
                        End Site
                        {
                          OFFSET 0.0147 -0.0181 0.0096
                        }
                      }
                    }
                  }
                  JOINT lPinky1
                  {
                    OFFSET 4.9141 -1.269 0.3591
                    CHANNELS 3 Zrotation Xrotation Yrotation
                    JOINT lPinky2
                    {
                      OFFSET 3.1477 -1.685 0.8462
                      CHANNELS 3 Zrotation Xrotation Yrotation
                      JOINT lPinky2_End
                      {
                        OFFSET 0.8055 -1.585 0.7955
                        CHANNELS 3 Zrotation Xrotation Yrotation
                        End Site
                        {
                          OFFSET 0.0081 -0.0158 0.008
                        }
                      }
                    }
                  }
                }
              }
            }
          }
        }
        JOINT rCollar
        {
          OFFSET -1.7069 20.075 5.0056
          CHANNELS 3 Zrotation Xrotation Yrotation
          JOINT rShldr
          {
            OFFSET -13.6458 -0.047 -4.849
            CHANNELS 3 Zrotation Xrotation Yrotation
            JOINT rForeArm
            {
              OFFSET -28.3255 -0.9759 2.2888
              CHANNELS 3 Zrotation Xrotation Yrotation
              JOINT rHand
              {
                OFFSET -22.1583 -0.53 10.8316
                CHANNELS 3 Zrotation Xrotation Yrotation
                JOINT rThumb1
                {
                  OFFSET -0.786 0.112 2.5817
                  CHANNELS 3 Zrotation Xrotation Yrotation
                  JOINT rThumb2
                  {
                    OFFSET -0.3601 -0.878 4.2331
                    CHANNELS 3 Zrotation Xrotation Yrotation
                    JOINT rThumb2_End
                    {
                      OFFSET -1.8127 -1.216 2.2227
                      CHANNELS 3 Zrotation Xrotation Yrotation
                      End Site
                      {
                        OFFSET -0.0181 -0.0122 0.0222
                      }
                    }
                  }
                }
                JOINT rCarpal1
                {
                  OFFSET -0.9571 1.114 1.7695
                  CHANNELS 3 Zrotation Xrotation Yrotation
                  JOINT rIndex1
                  {
                    OFFSET -4.1246 0.487 4.1451
                    CHANNELS 3 Zrotation Xrotation Yrotation
                    JOINT rIndex2
                    {
                      OFFSET -3.4052 -1.454 2.7682
                      CHANNELS 3 Zrotation Xrotation Yrotation
                      JOINT rIndex2_End
                      {
                        OFFSET -1.4531 -1.795 1.2713
                        CHANNELS 3 Zrotation Xrotation Yrotation
                        End Site
                        {
                          OFFSET -0.0145 -0.018 0.0127
                        }
                      }
                    }
                  }
                  JOINT rMid1
                  {
                    OFFSET -5.6954 0.21 2.1184
                    CHANNELS 3 Zrotation Xrotation Yrotation
                    JOINT rMid2
                    {
                      OFFSET -3.9766 -1.54 2.3863
                      CHANNELS 3 Zrotation Xrotation Yrotation
                      JOINT rMid2_End
                      {
                        OFFSET -1.4042 -1.926 1.125
                        CHANNELS 3 Zrotation Xrotation Yrotation
                        End Site
                        {
                          OFFSET -0.014 -0.0193 0.0113
                        }
                      }
                    }
                  }
                }
                JOINT rCarpal2
                {
                  OFFSET -2.0956 0.66 -0.3894
                  CHANNELS 3 Zrotation Xrotation Yrotation
                  JOINT rRing1
                  {
                    OFFSET -5.0395 -0.09 2.4971
                    CHANNELS 3 Zrotation Xrotation Yrotation
                    JOINT rRing2
                    {
                      OFFSET -3.7921 -1.552 1.4806
                      CHANNELS 3 Zrotation Xrotation Yrotation
                      JOINT rRing2_End
                      {
                        OFFSET -1.4655 -1.808 0.9609
                        CHANNELS 3 Zrotation Xrotation Yrotation
                        End Site
                        {
                          OFFSET -0.0147 -0.0181 0.0096
                        }
                      }
                    }
                  }
                  JOINT rPinky1
                  {
                    OFFSET -4.9141 -1.269 0.3592
                    CHANNELS 3 Zrotation Xrotation Yrotation
                    JOINT rPinky2
                    {
                      OFFSET -3.1477 -1.685 0.8462
                      CHANNELS 3 Zrotation Xrotation Yrotation
                      JOINT rPinky2_End
                      {
                        OFFSET -0.8055 -1.585 0.7955
                        CHANNELS 3 Zrotation Xrotation Yrotation
                        End Site
                        {
                          OFFSET -0.0081 -0.0158 0.008
                        }
                      }
                    }
                  }
                }
              }
            }
          }
        }
      }
    }
  }
  JOINT lThigh
  {
    OFFSET 8.367 -8.2066 0.5982
    CHANNELS 3 Zrotation Xrotation Yrotation
    JOINT lShin
    {
      OFFSET 2.1923 -43.463 -0.4932
      CHANNELS 3 Zrotation Xrotation Yrotation
      JOINT lFoot
      {
        OFFSET 0.7333 -45.8593 -2.6451
        CHANNELS 3 Zrotation Xrotation Yrotation
        End Site
        {
          OFFSET 2.6618 -4.2699 12.3931
        }
      }
    }
  }
  JOINT rThigh
  {
    OFFSET -8.367 -8.2066 0.5982
    CHANNELS 3 Zrotation Xrotation Yrotation
    JOINT rShin
    {
      OFFSET -2.1923 -43.463 -0.4931
      CHANNELS 3 Zrotation Xrotation Yrotation
      JOINT rFoot
      {
        OFFSET -0.7333 -45.8593 -2.6451
        CHANNELS 3 Zrotation Xrotation Yrotation
        End Site
        {
          OFFSET -2.6618 -4.2699 12.3931
        }
      }
    }
  }
}
MOTION
Frames:	5
Frame Time:	0.0333333
0 91.7903 2.51682 0 0 -0 0 0 -0 0 0 -0 0 0 -0 0 0 -0 0 0 -0 0 0 -0 1.66051 0.0835086 5.75766 -0.0175111 0.895433 15.7816 7.95139e-016 -1.98785e-016 -0 5.46658e-016 -3.97569e-016 -0 5.96354e-016 0 -0 3.97569e-016 1.98785e-016 9.54166e-015 1.49089e-016 -3.97569e-016 -0 6.4605e-016 0 3.18055e-015 5.96354e-016 0 3.18055e-015 8.94531e-016 -1.98785e-016 6.36111e-015 6.4605e-016 0 3.18055e-015 5.96354e-016 0 3.18055e-015 8.94531e-016 -1.98785e-016 6.36111e-015 1.49089e-016 -3.97569e-016 -0 6.4605e-016 0 3.18055e-015 5.96354e-016 0 3.18055e-015 8.94531e-016 -1.98785e-016 6.36111e-015 6.4605e-016 0 3.18055e-015 5.96354e-016 0 3.18055e-015 8.94531e-016 -1.98785e-016 6.36111e-015 0 0 -0 -1.4496 0.0636048 -5.0245 -1.74811 1.20616 -16.8394 -1.19271e-015 1.98785e-016 -3.18055e-015 -3.97569e-016 1.98785e-016 -3.18055e-015 -2.98177e-016 1.98785e-016 -3.18055e-015 -2.98177e-016 3.97569e-016 -0 4.96962e-016 0 -6.36111e-015 -9.93923e-017 3.97569e-016 -0 -8.94531e-016 5.96354e-016 -0 -3.97569e-016 3.97569e-016 -0 -9.93923e-017 3.97569e-016 -0 -8.94531e-016 5.96354e-016 -0 -3.97569e-016 3.97569e-016 -0 4.96962e-016 0 -6.36111e-015 -9.93923e-017 3.97569e-016 -0 -8.94531e-016 5.96354e-016 -0 -3.97569e-016 3.97569e-016 -0 -9.93923e-017 3.97569e-016 -0 -8.94531e-016 5.96354e-016 -0 -3.97569e-016 3.97569e-016 -0 -4.66111 -0.998717 0.12318 0.00986924 1.54847 0.176523 4.65186 -0.572283 -0.254274 4.66111 -0.998765 -0.123176 -0.00986867 1.54869 -0.176537 -4.65186 -0.572453 0.25427 
42.0059 25.0079 46.4856 89.3125 -89.7452 -90.4204 0.257366 0.853243 -0.120568 0.516613 1.70593 -0.245009 0.516613 1.70593 -0.245009 -6.91099e-005 21.9986 2.9456e-005 -7.66368e-008 -24.0027 -1.54181e-007 -26.2466 28.2997 5.7385 10.9857 -17.936 -63.5065 0.292446 -6.75421 -53.2233 41.2699 -46.473 31.0024 -3.97569e-016 3.18055e-015 7.95139e-016 -3.97569e-016 3.18055e-015 -0 -1.98785e-016 1.59028e-015 7.95139e-016 -1.98785e-016 0 -0 -2.18663e-015 3.18055e-015 7.95139e-015 -1.98785e-016 1.59028e-015 -0 -3.97569e-016 3.18055e-015 7.95139e-016 -2.18663e-015 3.18055e-015 7.95139e-015 -1.98785e-016 1.59028e-015 -0 -3.97569e-016 3.18055e-015 7.95139e-016 -1.98785e-016 0 -0 -2.18663e-015 3.18055e-015 7.95139e-015 -1.98785e-016 1.59028e-015 -0 -3.97569e-016 3.18055e-015 7.95139e-016 -2.18663e-015 3.18055e-015 7.95139e-015 -1.98785e-016 1.59028e-015 -0 -3.97569e-016 3.18055e-015 7.95139e-016 23.2922 17.4213 -10.2409 -7.20631 -6.66906 75.3566 -1.62889 -7.77807 47.6793 -43.8118 -32.6827 -28.195 7.95139e-016 -3.18055e-015 -1.59028e-015 0 0 -0 -7.95139e-016 0 -3.18055e-015 7.95139e-016 0 -1.59028e-015 -3.18055e-015 3.18055e-015 6.36111e-015 -3.18055e-015 -3.18055e-015 -1.59028e-015 -1.59028e-015 -3.18055e-015 -3.18055e-015 -3.18055e-015 3.18055e-015 6.36111e-015 -3.18055e-015 -3.18055e-015 -1.59028e-015 -1.59028e-015 -3.18055e-015 -3.18055e-015 7.95139e-016 0 -1.59028e-015 -3.18055e-015 3.18055e-015 6.36111e-015 -3.18055e-015 -3.18055e-015 -1.59028e-015 -1.59028e-015 -3.18055e-015 -3.18055e-015 -3.18055e-015 3.18055e-015 6.36111e-015 -3.18055e-015 -3.18055e-015 -1.59028e-015 -1.59028e-015 -3.18055e-015 -3.18055e-015 96.0132 -46.2721 116.387 118.104 77.2897 -117.142 15.6245 54.94 -9.2756 -96.0124 -46.2826 -116.409 -118.066 77.2932 117.081 -15.6486 54.9427 9.27527 
42.0059 25.0079 46.4857 89.3108 -89.7452 -90.4221 0.256802 1.06404 -0.123134 0.516025 2.12754 -0.251101 0.516025 2.1275 -0.251101 2.9185e-005 21.6089 -1.24599e-005 -2.09555e-007 -24.0027 1.23129e-007 -26.2196 27.5359 6.15476 10.9876 -18.024 -63.8134 0.290892 -6.84753 -54.4737 42.0868 -45.9178 31.8098 5.96354e-016 3.18055e-015 1.59028e-015 5.96354e-016 3.18055e-015 2.38542e-015 1.98785e-016 3.18055e-015 2.38542e-015 3.97569e-016 1.59028e-015 -0 -3.97569e-016 3.18055e-015 6.36111e-015 1.98785e-016 3.18055e-015 1.59028e-015 1.98785e-016 3.18055e-015 1.59028e-015 -3.97569e-016 3.18055e-015 6.36111e-015 1.98785e-016 3.18055e-015 1.59028e-015 1.98785e-016 3.18055e-015 1.59028e-015 3.97569e-016 1.59028e-015 -0 -3.97569e-016 3.18055e-015 6.36111e-015 1.98785e-016 3.18055e-015 1.59028e-015 1.98785e-016 3.18055e-015 1.59028e-015 -3.97569e-016 3.18055e-015 6.36111e-015 1.98785e-016 3.18055e-015 1.59028e-015 1.98785e-016 3.18055e-015 1.59028e-015 23.3154 16.7063 -10.5933 -7.20631 -6.66907 75.3566 -1.59841 -7.87517 48.9558 -44.2654 -32.0254 -28.7169 7.95139e-016 1.90833e-014 -3.18055e-015 2.38542e-015 2.22639e-014 -1.59028e-015 -1.59028e-015 1.59028e-014 -3.18055e-015 2.38542e-015 -3.18055e-015 -1.59028e-015 -3.18055e-015 1.59028e-014 3.18055e-015 0 1.90833e-014 -0 -7.95139e-016 2.22639e-014 -0 -3.18055e-015 1.59028e-014 3.18055e-015 0 1.90833e-014 -0 -7.95139e-016 2.22639e-014 -0 2.38542e-015 -3.18055e-015 -1.59028e-015 -3.18055e-015 1.59028e-014 3.18055e-015 0 1.90833e-014 -0 -7.95139e-016 2.22639e-014 -0 -3.18055e-015 1.59028e-014 3.18055e-015 0 1.90833e-014 -0 -7.95139e-016 2.22639e-014 -0 96.0132 -46.2721 116.387 118.104 77.2897 -117.141 15.6245 54.94 -9.2756 -96.0124 -46.2826 -116.409 -118.066 77.2932 117.081 -15.6486 54.9427 9.27526 
42.0059 25.0079 46.4857 89.3108 -89.7452 -90.4221 0.256342 1.27496 -0.12566 0.515673 2.54938 -0.257122 0.515673 2.54937 -0.257122 4.45294e-005 21.2209 -1.85893e-005 -5.43894e-008 -24.0027 -1.04881e-007 -26.1865 26.7713 6.56892 10.9891 -18.112 -64.1204 0.287289 -6.94096 -55.7267 42.885 -45.3543 32.5985 -1.21259e-014 -4.77083e-015 -3.97569e-015 -1.21259e-014 -3.18055e-015 -2.38542e-015 -1.23246e-014 -1.59028e-015 -2.38542e-015 -0 -3.18055e-015 -0 -1.33186e-014 -3.18055e-015 3.18055e-015 -1.21259e-014 -1.59028e-015 -3.97569e-015 -1.23246e-014 0 -3.18055e-015 -1.33186e-014 -3.18055e-015 3.18055e-015 -1.21259e-014 -1.59028e-015 -3.97569e-015 -1.23246e-014 0 -3.18055e-015 -0 -3.18055e-015 -0 -1.33186e-014 -3.18055e-015 3.18055e-015 -1.21259e-014 -1.59028e-015 -3.97569e-015 -1.23246e-014 0 -3.18055e-015 -1.33186e-014 -3.18055e-015 3.18055e-015 -1.21259e-014 -1.59028e-015 -3.97569e-015 -1.23246e-014 0 -3.18055e-015 23.3338 15.9904 -10.9444 -7.20632 -6.66905 75.3566 -1.56566 -7.9718 50.2352 -44.7091 -31.3642 -29.2294 3.14263e-006 -1.8662e-007 1.83344e-006 -1.57351e-007 -6.46343e-007 5.32133e-007 -1.57351e-007 -6.46343e-007 5.32133e-007 1.59028e-015 -3.18055e-015 -1.59028e-015 3.14263e-006 -1.8662e-007 1.83344e-006 -1.57351e-007 -6.46343e-007 5.32133e-007 -1.57351e-007 -6.46343e-007 5.32133e-007 3.14263e-006 -1.8662e-007 1.83344e-006 -1.57351e-007 -6.46343e-007 5.32133e-007 -1.57351e-007 -6.46343e-007 5.32133e-007 1.59028e-015 -3.18055e-015 -1.59028e-015 3.14263e-006 -1.8662e-007 1.83344e-006 -1.57351e-007 -6.46343e-007 5.32133e-007 -1.57351e-007 -6.46343e-007 5.32133e-007 3.14263e-006 -1.8662e-007 1.83344e-006 -1.57351e-007 -6.46343e-007 5.32133e-007 -1.57351e-007 -6.46343e-007 5.32133e-007 96.0132 -46.2721 116.387 118.104 77.2897 -117.141 15.6245 54.94 -9.2756 -96.0124 -46.2826 -116.409 -118.066 77.2932 117.081 -15.6486 54.9427 9.27526 
42.0059 25.0079 46.4857 89.3108 -89.7452 -90.4221 0.255891 1.48605 -0.128187 0.515371 2.9715 -0.263148 0.51537 2.9715 -0.263148 -1.49257e-005 20.832 7.44279e-006 -1.54354e-007 -24.0027 -1.84671e-007 -26.1474 26.006 6.98104 10.99 -18.2 -64.4276 0.281595 -7.03445 -56.9821 43.6649 -44.7829 33.3688 1.98785e-016 6.36111e-015 -0 3.97569e-016 7.95139e-015 -7.95139e-016 5.96354e-016 4.77083e-015 -1.59028e-015 -2.20695e-032 1.59028e-015 7.95139e-016 -1.39149e-015 7.95139e-015 5.56597e-015 3.97569e-016 7.95139e-015 -0 1.98785e-016 4.77083e-015 -7.95139e-016 -1.39149e-015 7.95139e-015 5.56597e-015 3.97569e-016 7.95139e-015 -0 1.98785e-016 4.77083e-015 -7.95139e-016 -2.20695e-032 1.59028e-015 7.95139e-016 -1.39149e-015 7.95139e-015 5.56597e-015 3.97569e-016 7.95139e-015 -0 1.98785e-016 4.77083e-015 -7.95139e-016 -1.39149e-015 7.95139e-015 5.56597e-015 3.97569e-016 7.95139e-015 -0 1.98785e-016 4.77083e-015 -7.95139e-016 23.3475 15.2737 -11.294 -7.20632 -6.66906 75.3566 -1.53069 -8.06783 51.5173 -45.1431 -30.6991 -29.7327 -7.95139e-016 0 1.59028e-015 -3.13668e-007 -1.29465e-006 1.06191e-006 1.59028e-015 -3.18055e-015 3.18055e-015 -7.95139e-016 0 -0 -7.95139e-016 -3.18055e-015 6.36111e-015 -3.13668e-007 -1.29465e-006 1.06191e-006 1.59028e-015 -6.36111e-015 -0 -7.95139e-016 -3.18055e-015 6.36111e-015 -3.13668e-007 -1.29465e-006 1.06191e-006 1.59028e-015 -6.36111e-015 -0 -7.95139e-016 0 -0 -7.95139e-016 -3.18055e-015 6.36111e-015 -3.13668e-007 -1.29465e-006 1.06191e-006 1.59028e-015 -6.36111e-015 -0 -7.95139e-016 -3.18055e-015 6.36111e-015 -3.13668e-007 -1.29465e-006 1.06191e-006 1.59028e-015 -6.36111e-015 -0 96.0132 -46.2721 116.387 118.104 77.2897 -117.141 15.6245 54.94 -9.2756 -96.0124 -46.2826 -116.409 -118.066 77.2932 117.081 -15.6486 54.9427 9.27526 
